<svg height="500" width="500" xmlns="http://www.w3.org/2000/svg" xmlns:xlink="http://www.w3.org/1999/xlink"><circle r="250" fill="#616161" stroke-width="0" cx="250" cy="250"></circle><path fill="#4285f4" d="M 250,250 L 250,0 A 250,250 0 0,1 250,500 Z"></path><path fill="#4285f4" d="M 250,250 L 250,500 A 250,250 0 0,1 67.75784314464707,78.86322351782789 Z"></path><circle r="212.5" fill="#ffffff" stroke-width="0" cx="250" cy="250"></circle><text x="250" y="212.5" font-family="verdana" font-style="normal" font-size="90" font-weight="bold" text-anchor="middle" stroke="#000000" fill="#000000">87%</text><text x="250" y="300" font-family="verdana" font-style="normal" font-size="70" font-weight="normal" text-anchor="middle" stroke="#616161" fill="#616161">AAA</text><text x="250" y="362.5" font-family="verdana" font-style="normal" font-size="30" font-weight="normal" text-anchor="middle" stroke="#000000" fill="#000000">índice: 9.7</text><text x="190" y="410.00000000000006" font-family="verdana" font-style="italic" font-size="30" font-weight="normal" text-anchor="middle" stroke="#000000" fill="#000000">Access</text><text x="310" y="410.00000000000006" font-family="verdana" font-style="normal" font-size="30" font-weight="bold" text-anchor="middle" stroke="#000000" fill="#000000">Monitor</text><circle r="250" fill="#616161" stroke-width="0" cx="250" cy="250"></circle><path fill="#4285f4" d="M 250,250 L 250,0 A 250,250 0 0,1 250,0 Z"></path><circle r="212.5" fill="#ffffff" stroke-width="0" cx="250" cy="250"></circle><text x="250" y="212.5" font-family="verdana" font-style="normal" font-size="90" font-weight="bold" text-anchor="middle" stroke="#000000" fill="#000000">0%</text><text x="250" y="300" font-family="verdana" font-style="normal" font-size="70" font-weight="normal" text-anchor="middle" stroke="#616161" fill="#616161">Não conforme</text><text x="250" y="362.5" font-family="verdana" font-style="normal" font-size="30" font-weight="normal" text-anchor="middle" stroke="#000000" fill="#000000">índice: 5.0</text><text x="190" y="410.00000000000006" font-family="verdana" font-style="italic" font-size="30" font-weight="normal" text-anchor="middle" stroke="#000000" fill="#000000">Access</text><text x="310" y="410.00000000000006" font-family="verdana" font-style="normal" font-size="30" font-weight="bold" text-anchor="middle" stroke="#000000" fill="#000000">Monitor</text><circle r="250" fill="#616161" stroke-width="0" cx="250" cy="250"></circle><path fill="#4285f4" d="M 250,250 L 250,0 A 250,250 0 0,1 250,0 Z"></path><circle r="212.5" fill="#ffffff" stroke-width="0" cx="250" cy="250"></circle><text x="250" y="212.5" font-family="verdana" font-style="normal" font-size="90" font-weight="bold" text-anchor="middle" stroke="#000000" fill="#000000">0%</text><text x="250" y="300" font-family="verdana" font-style="normal" font-size="70" font-weight="normal" text-anchor="middle" stroke="#616161" fill="#616161">Não conforme</text><text x="250" y="362.5" font-family="verdana" font-style="normal" font-size="30" font-weight="normal" text-anchor="middle" stroke="#000000" fill="#000000">índice: 8.2</text><text x="190" y="410.00000000000006" font-family="verdana" font-style="italic" font-size="30" font-weight="normal" text-anchor="middle" stroke="#000000" fill="#000000">Access</text><text x="310" y="410.00000000000006" font-family="verdana" font-style="normal" font-size="30" font-weight="bold" text-anchor="middle" stroke="#000000" fill="#000000">Monitor</text><circle r="250" fill="#616161" stroke-width="0" cx="250" cy="250"></circle><path fill="#4285f4" d="M 250,250 L 250,0 A 250,250 0 0,1 250,0 Z"></path><circle r="212.5" fill="#ffffff" stroke-width="0" cx="250" cy="250"></circle><text x="250" y="212.5" font-family="verdana" font-style="normal" font-size="90" font-weight="bold" text-anchor="middle" stroke="#000000" fill="#000000">0%</text><text x="250" y="300" font-family="verdana" font-style="normal" font-size="70" font-weight="normal" text-anchor="middle" stroke="#616161" fill="#616161">Não conforme</text><text x="250" y="362.5" font-family="verdana" font-style="normal" font-size="30" font-weight="normal" text-anchor="middle" stroke="#000000" fill="#000000">índice: 7.0</text><text x="190" y="410.00000000000006" font-family="verdana" font-style="italic" font-size="30" font-weight="normal" text-anchor="middle" stroke="#000000" fill="#000000">Access</text><text x="310" y="410.00000000000006" font-family="verdana" font-style="normal" font-size="30" font-weight="bold" text-anchor="middle" stroke="#000000" fill="#000000">Monitor</text><circle r="250" fill="#616161" stroke-width="0" cx="250" cy="250"></circle><path fill="#4285f4" d="M 250,250 L 250,0 A 250,250 0 0,1 250,0 Z"></path><circle r="212.5" fill="#ffffff" stroke-width="0" cx="250" cy="250"></circle><text x="250" y="212.5" font-family="verdana" font-style="normal" font-size="90" font-weight="bold" text-anchor="middle" stroke="#000000" fill="#000000">0%</text><text x="250" y="300" font-family="verdana" font-style="normal" font-size="70" font-weight="normal" text-anchor="middle" stroke="#616161" fill="#616161">Não conforme</text><text x="250" y="362.5" font-family="verdana" font-style="normal" font-size="30" font-weight="normal" text-anchor="middle" stroke="#000000" fill="#000000">índice: 6.9</text><text x="190" y="410.00000000000006" font-family="verdana" font-style="italic" font-size="30" font-weight="normal" text-anchor="middle" stroke="#000000" fill="#000000">Access</text><text x="310" y="410.00000000000006" font-family="verdana" font-style="normal" font-size="30" font-weight="bold" text-anchor="middle" stroke="#000000" fill="#000000">Monitor</text><circle r="250" fill="#616161" stroke-width="0" cx="250" cy="250"></circle><path fill="#4285f4" d="M 250,250 L 250,0 A 250,250 0 0,1 250,0 Z"></path><circle r="212.5" fill="#ffffff" stroke-width="0" cx="250" cy="250"></circle><text x="250" y="212.5" font-family="verdana" font-style="normal" font-size="90" font-weight="bold" text-anchor="middle" stroke="#000000" fill="#000000">0%</text><text x="250" y="300" font-family="verdana" font-style="normal" font-size="70" font-weight="normal" text-anchor="middle" stroke="#616161" fill="#616161">Não conforme</text><text x="250" y="362.5" font-family="verdana" font-style="normal" font-size="30" font-weight="normal" text-anchor="middle" stroke="#000000" fill="#000000">índice: NaN</text><text x="190" y="410.00000000000006" font-family="verdana" font-style="italic" font-size="30" font-weight="normal" text-anchor="middle" stroke="#000000" fill="#000000">Access</text><text x="310" y="410.00000000000006" font-family="verdana" font-style="normal" font-size="30" font-weight="bold" text-anchor="middle" stroke="#000000" fill="#000000">Monitor</text><circle r="250" fill="#616161" stroke-width="0" cx="250" cy="250"></circle><path fill="#4285f4" d="M 250,250 L 250,0 A 250,250 0 0,1 250,0 Z"></path><circle r="212.5" fill="#ffffff" stroke-width="0" cx="250" cy="250"></circle><text x="250" y="212.5" font-family="verdana" font-style="normal" font-size="90" font-weight="bold" text-anchor="middle" stroke="#000000" fill="#000000">0%</text><text x="250" y="300" font-family="verdana" font-style="normal" font-size="70" font-weight="normal" text-anchor="middle" stroke="#616161" fill="#616161">Não conforme</text><text x="250" y="362.5" font-family="verdana" font-style="normal" font-size="30" font-weight="normal" text-anchor="middle" stroke="#000000" fill="#000000">índice: 5.5</text><text x="190" y="410.00000000000006" font-family="verdana" font-style="italic" font-size="30" font-weight="normal" text-anchor="middle" stroke="#000000" fill="#000000">Access</text><text x="310" y="410.00000000000006" font-family="verdana" font-style="normal" font-size="30" font-weight="bold" text-anchor="middle" stroke="#000000" fill="#000000">Monitor</text><circle r="250" fill="#616161" stroke-width="0" cx="250" cy="250"></circle><path fill="#4285f4" d="M 250,250 L 250,0 A 250,250 0 0,1 250,0 Z"></path><circle r="212.5" fill="#ffffff" stroke-width="0" cx="250" cy="250"></circle><text x="250" y="212.5" font-family="verdana" font-style="normal" font-size="90" font-weight="bold" text-anchor="middle" stroke="#000000" fill="#000000">0%</text><text x="250" y="300" font-family="verdana" font-style="normal" font-size="70" font-weight="normal" text-anchor="middle" stroke="#616161" fill="#616161">Não conforme</text><text x="250" y="362.5" font-family="verdana" font-style="normal" font-size="30" font-weight="normal" text-anchor="middle" stroke="#000000" fill="#000000">índice: 7.3</text><text x="190" y="410.00000000000006" font-family="verdana" font-style="italic" font-size="30" font-weight="normal" text-anchor="middle" stroke="#000000" fill="#000000">Access</text><text x="310" y="410.00000000000006" font-family="verdana" font-style="normal" font-size="30" font-weight="bold" text-anchor="middle" stroke="#000000" fill="#000000">Monitor</text><circle r="250" fill="#616161" stroke-width="0" cx="250" cy="250"></circle><path fill="#4285f4" d="M 250,250 L 250,0 A 250,250 0 0,1 250,0 Z"></path><circle r="212.5" fill="#ffffff" stroke-width="0" cx="250" cy="250"></circle><text x="250" y="212.5" font-family="verdana" font-style="normal" font-size="90" font-weight="bold" text-anchor="middle" stroke="#000000" fill="#000000">0%</text><text x="250" y="300" font-family="verdana" font-style="normal" font-size="70" font-weight="normal" text-anchor="middle" stroke="#616161" fill="#616161">Não conforme</text><text x="250" y="362.5" font-family="verdana" font-style="normal" font-size="30" font-weight="normal" text-anchor="middle" stroke="#000000" fill="#000000">índice: 5.1</text><text x="190" y="410.00000000000006" font-family="verdana" font-style="italic" font-size="30" font-weight="normal" text-anchor="middle" stroke="#000000" fill="#000000">Access</text><text x="310" y="410.00000000000006" font-family="verdana" font-style="normal" font-size="30" font-weight="bold" text-anchor="middle" stroke="#000000" fill="#000000">Monitor</text><circle r="250" fill="#616161" stroke-width="0" cx="250" cy="250"></circle><path fill="#4285f4" d="M 250,250 L 250,0 A 250,250 0 0,1 250,0 Z"></path><circle r="212.5" fill="#ffffff" stroke-width="0" cx="250" cy="250"></circle><text x="250" y="212.5" font-family="verdana" font-style="normal" font-size="90" font-weight="bold" text-anchor="middle" stroke="#000000" fill="#000000">0%</text><text x="250" y="300" font-family="verdana" font-style="normal" font-size="70" font-weight="normal" text-anchor="middle" stroke="#616161" fill="#616161">Não conforme</text><text x="250" y="362.5" font-family="verdana" font-style="normal" font-size="30" font-weight="normal" text-anchor="middle" stroke="#000000" fill="#000000">índice: 7.6</text><text x="190" y="410.00000000000006" font-family="verdana" font-style="italic" font-size="30" font-weight="normal" text-anchor="middle" stroke="#000000" fill="#000000">Access</text><text x="310" y="410.00000000000006" font-family="verdana" font-style="normal" font-size="30" font-weight="bold" text-anchor="middle" stroke="#000000" fill="#000000">Monitor</text><circle r="250" fill="#616161" stroke-width="0" cx="250" cy="250"></circle><path fill="#4285f4" d="M 250,250 L 250,0 A 250,250 0 0,1 250,0 Z"></path><circle r="212.5" fill="#ffffff" stroke-width="0" cx="250" cy="250"></circle><text x="250" y="212.5" font-family="verdana" font-style="normal" font-size="90" font-weight="bold" text-anchor="middle" stroke="#000000" fill="#000000">0%</text><text x="250" y="300" font-family="verdana" font-style="normal" font-size="70" font-weight="normal" text-anchor="middle" stroke="#616161" fill="#616161">Não conforme</text><text x="250" y="362.5" font-family="verdana" font-style="normal" font-size="30" font-weight="normal" text-anchor="middle" stroke="#000000" fill="#000000">índice: 6.6</text><text x="190" y="410.00000000000006" font-family="verdana" font-style="italic" font-size="30" font-weight="normal" text-anchor="middle" stroke="#000000" fill="#000000">Access</text><text x="310" y="410.00000000000006" font-family="verdana" font-style="normal" font-size="30" font-weight="bold" text-anchor="middle" stroke="#000000" fill="#000000">Monitor</text><circle r="250" fill="#616161" stroke-width="0" cx="250" cy="250"></circle><path fill="#4285f4" d="M 250,250 L 250,0 A 250,250 0 0,1 250,0 Z"></path><circle r="212.5" fill="#ffffff" stroke-width="0" cx="250" cy="250"></circle><text x="250" y="212.5" font-family="verdana" font-style="normal" font-size="90" font-weight="bold" text-anchor="middle" stroke="#000000" fill="#000000">0%</text><text x="250" y="300" font-family="verdana" font-style="normal" font-size="70" font-weight="normal" text-anchor="middle" stroke="#616161" fill="#616161">Não conforme</text><text x="250" y="362.5" font-family="verdana" font-style="normal" font-size="30" font-weight="normal" text-anchor="middle" stroke="#000000" fill="#000000">índice: 6.0</text><text x="190" y="410.00000000000006" font-family="verdana" font-style="italic" font-size="30" font-weight="normal" text-anchor="middle" stroke="#000000" fill="#000000">Access</text><text x="310" y="410.00000000000006" font-family="verdana" font-style="normal" font-size="30" font-weight="bold" text-anchor="middle" stroke="#000000" fill="#000000">Monitor</text><circle r="250" fill="#616161" stroke-width="0" cx="250" cy="250"></circle><path fill="#4285f4" d="M 250,250 L 250,0 A 250,250 0 0,1 250,0 Z"></path><circle r="212.5" fill="#ffffff" stroke-width="0" cx="250" cy="250"></circle><text x="250" y="212.5" font-family="verdana" font-style="normal" font-size="90" font-weight="bold" text-anchor="middle" stroke="#000000" fill="#000000">0%</text><text x="250" y="300" font-family="verdana" font-style="normal" font-size="70" font-weight="normal" text-anchor="middle" stroke="#616161" fill="#616161">Não conforme</text><text x="250" y="362.5" font-family="verdana" font-style="normal" font-size="30" font-weight="normal" text-anchor="middle" stroke="#000000" fill="#000000">índice: 6.6</text><text x="190" y="410.00000000000006" font-family="verdana" font-style="italic" font-size="30" font-weight="normal" text-anchor="middle" stroke="#000000" fill="#000000">Access</text><text x="310" y="410.00000000000006" font-family="verdana" font-style="normal" font-size="30" font-weight="bold" text-anchor="middle" stroke="#000000" fill="#000000">Monitor</text><circle r="250" fill="#616161" stroke-width="0" cx="250" cy="250"></circle><path fill="#4285f4" d="M 250,250 L 250,0 A 250,250 0 0,1 250,0 Z"></path><circle r="212.5" fill="#ffffff" stroke-width="0" cx="250" cy="250"></circle><text x="250" y="212.5" font-family="verdana" font-style="normal" font-size="90" font-weight="bold" text-anchor="middle" stroke="#000000" fill="#000000">0%</text><text x="250" y="300" font-family="verdana" font-style="normal" font-size="70" font-weight="normal" text-anchor="middle" stroke="#616161" fill="#616161">Não conforme</text><text x="250" y="362.5" font-family="verdana" font-style="normal" font-size="30" font-weight="normal" text-anchor="middle" stroke="#000000" fill="#000000">índice: 6.4</text><text x="190" y="410.00000000000006" font-family="verdana" font-style="italic" font-size="30" font-weight="normal" text-anchor="middle" stroke="#000000" fill="#000000">Access</text><text x="310" y="410.00000000000006" font-family="verdana" font-style="normal" font-size="30" font-weight="bold" text-anchor="middle" stroke="#000000" fill="#000000">Monitor</text><circle r="250" fill="#616161" stroke-width="0" cx="250" cy="250"></circle><path fill="#4285f4" d="M 250,250 L 250,0 A 250,250 0 0,1 250,0 Z"></path><circle r="212.5" fill="#ffffff" stroke-width="0" cx="250" cy="250"></circle><text x="250" y="212.5" font-family="verdana" font-style="normal" font-size="90" font-weight="bold" text-anchor="middle" stroke="#000000" fill="#000000">0%</text><text x="250" y="300" font-family="verdana" font-style="normal" font-size="70" font-weight="normal" text-anchor="middle" stroke="#616161" fill="#616161">Não conforme</text><text x="250" y="362.5" font-family="verdana" font-style="normal" font-size="30" font-weight="normal" text-anchor="middle" stroke="#000000" fill="#000000">índice: 5.8</text><text x="190" y="410.00000000000006" font-family="verdana" font-style="italic" font-size="30" font-weight="normal" text-anchor="middle" stroke="#000000" fill="#000000">Access</text><text x="310" y="410.00000000000006" font-family="verdana" font-style="normal" font-size="30" font-weight="bold" text-anchor="middle" stroke="#000000" fill="#000000">Monitor</text><circle r="250" fill="#616161" stroke-width="0" cx="250" cy="250"></circle><path fill="#4285f4" d="M 250,250 L 250,0 A 250,250 0 0,1 452.25424859373686,396.9463130731183 Z"></path><circle r="212.5" fill="#ffffff" stroke-width="0" cx="250" cy="250"></circle><text x="250" y="212.5" font-family="verdana" font-style="normal" font-size="90" font-weight="bold" text-anchor="middle" stroke="#000000" fill="#000000">35%</text><text x="250" y="300" font-family="verdana" font-style="normal" font-size="70" font-weight="normal" text-anchor="middle" stroke="#616161" fill="#616161">A</text><text x="250" y="362.5" font-family="verdana" font-style="normal" font-size="30" font-weight="normal" text-anchor="middle" stroke="#000000" fill="#000000">índice: 7.5</text><text x="190" y="410.00000000000006" font-family="verdana" font-style="italic" font-size="30" font-weight="normal" text-anchor="middle" stroke="#000000" fill="#000000">Access</text><text x="310" y="410.00000000000006" font-family="verdana" font-style="normal" font-size="30" font-weight="bold" text-anchor="middle" stroke="#000000" fill="#000000">Monitor</text><circle r="250" fill="#616161" stroke-width="0" cx="250" cy="250"></circle><path fill="#4285f4" d="M 250,250 L 250,0 A 250,250 0 0,1 250,0 Z"></path><circle r="212.5" fill="#ffffff" stroke-width="0" cx="250" cy="250"></circle><text x="250" y="212.5" font-family="verdana" font-style="normal" font-size="90" font-weight="bold" text-anchor="middle" stroke="#000000" fill="#000000">0%</text><text x="250" y="300" font-family="verdana" font-style="normal" font-size="70" font-weight="normal" text-anchor="middle" stroke="#616161" fill="#616161">Não conforme</text><text x="250" y="362.5" font-family="verdana" font-style="normal" font-size="30" font-weight="normal" text-anchor="middle" stroke="#000000" fill="#000000">índice: 5.2</text><text x="190" y="410.00000000000006" font-family="verdana" font-style="italic" font-size="30" font-weight="normal" text-anchor="middle" stroke="#000000" fill="#000000">Access</text><text x="310" y="410.00000000000006" font-family="verdana" font-style="normal" font-size="30" font-weight="bold" text-anchor="middle" stroke="#000000" fill="#000000">Monitor</text><circle r="250" fill="#616161" stroke-width="0" cx="250" cy="250"></circle><path fill="#4285f4" d="M 250,250 L 250,0 A 250,250 0 0,1 250,0 Z"></path><circle r="212.5" fill="#ffffff" stroke-width="0" cx="250" cy="250"></circle><text x="250" y="212.5" font-family="verdana" font-style="normal" font-size="90" font-weight="bold" text-anchor="middle" stroke="#000000" fill="#000000">0%</text><text x="250" y="300" font-family="verdana" font-style="normal" font-size="70" font-weight="normal" text-anchor="middle" stroke="#616161" fill="#616161">Não conforme</text><text x="250" y="362.5" font-family="verdana" font-style="normal" font-size="30" font-weight="normal" text-anchor="middle" stroke="#000000" fill="#000000">índice: 6.0</text><text x="190" y="410.00000000000006" font-family="verdana" font-style="italic" font-size="30" font-weight="normal" text-anchor="middle" stroke="#000000" fill="#000000">Access</text><text x="310" y="410.00000000000006" font-family="verdana" font-style="normal" font-size="30" font-weight="bold" text-anchor="middle" stroke="#000000" fill="#000000">Monitor</text><circle r="250" fill="#616161" stroke-width="0" cx="250" cy="250"></circle><path fill="#4285f4" d="M 250,250 L 250,0 A 250,250 0 0,1 250,0 Z"></path><circle r="212.5" fill="#ffffff" stroke-width="0" cx="250" cy="250"></circle><text x="250" y="212.5" font-family="verdana" font-style="normal" font-size="90" font-weight="bold" text-anchor="middle" stroke="#000000" fill="#000000">0%</text><text x="250" y="300" font-family="verdana" font-style="normal" font-size="70" font-weight="normal" text-anchor="middle" stroke="#616161" fill="#616161">Não conforme</text><text x="250" y="362.5" font-family="verdana" font-style="normal" font-size="30" font-weight="normal" text-anchor="middle" stroke="#000000" fill="#000000">índice: 6.9</text><text x="190" y="410.00000000000006" font-family="verdana" font-style="italic" font-size="30" font-weight="normal" text-anchor="middle" stroke="#000000" fill="#000000">Access</text><text x="310" y="410.00000000000006" font-family="verdana" font-style="normal" font-size="30" font-weight="bold" text-anchor="middle" stroke="#000000" fill="#000000">Monitor</text><circle r="250" fill="#616161" stroke-width="0" cx="250" cy="250"></circle><path fill="#4285f4" d="M 250,250 L 250,0 A 250,250 0 0,1 452.25424859373686,103.05368692688171 Z"></path><circle r="212.5" fill="#ffffff" stroke-width="0" cx="250" cy="250"></circle><text x="250" y="212.5" font-family="verdana" font-style="normal" font-size="90" font-weight="bold" text-anchor="middle" stroke="#000000" fill="#000000">15%</text><text x="250" y="300" font-family="verdana" font-style="normal" font-size="70" font-weight="normal" text-anchor="middle" stroke="#616161" fill="#616161">A</text><text x="250" y="362.5" font-family="verdana" font-style="normal" font-size="30" font-weight="normal" text-anchor="middle" stroke="#000000" fill="#000000">índice: 8.0</text><text x="190" y="410.00000000000006" font-family="verdana" font-style="italic" font-size="30" font-weight="normal" text-anchor="middle" stroke="#000000" fill="#000000">Access</text><text x="310" y="410.00000000000006" font-family="verdana" font-style="normal" font-size="30" font-weight="bold" text-anchor="middle" stroke="#000000" fill="#000000">Monitor</text><circle r="250" fill="#616161" stroke-width="0" cx="250" cy="250"></circle><path fill="#4285f4" d="M 250,250 L 250,0 A 250,250 0 0,1 250,0 Z"></path><circle r="212.5" fill="#ffffff" stroke-width="0" cx="250" cy="250"></circle><text x="250" y="212.5" font-family="verdana" font-style="normal" font-size="90" font-weight="bold" text-anchor="middle" stroke="#000000" fill="#000000">0%</text><text x="250" y="300" font-family="verdana" font-style="normal" font-size="70" font-weight="normal" text-anchor="middle" stroke="#616161" fill="#616161">Não conforme</text><text x="250" y="362.5" font-family="verdana" font-style="normal" font-size="30" font-weight="normal" text-anchor="middle" stroke="#000000" fill="#000000">índice: 7.0</text><text x="190" y="410.00000000000006" font-family="verdana" font-style="italic" font-size="30" font-weight="normal" text-anchor="middle" stroke="#000000" fill="#000000">Access</text><text x="310" y="410.00000000000006" font-family="verdana" font-style="normal" font-size="30" font-weight="bold" text-anchor="middle" stroke="#000000" fill="#000000">Monitor</text><circle r="250" fill="#616161" stroke-width="0" cx="250" cy="250"></circle><path fill="#4285f4" d="M 250,250 L 250,0 A 250,250 0 0,1 250,500 Z"></path><path fill="#4285f4" d="M 250,250 L 250,500 A 250,250 0 0,1 249.99999999999997,0 Z"></path><circle r="212.5" fill="#ffffff" stroke-width="0" cx="250" cy="250"></circle><text x="250" y="212.5" font-family="verdana" font-style="normal" font-size="90" font-weight="bold" text-anchor="middle" stroke="#000000" fill="#000000">100%</text><text x="250" y="300" font-family="verdana" font-style="normal" font-size="70" font-weight="normal" text-anchor="middle" stroke="#616161" fill="#616161">A</text><text x="250" y="362.5" font-family="verdana" font-style="normal" font-size="30" font-weight="normal" text-anchor="middle" stroke="#000000" fill="#000000">índice: 10.0</text><text x="190" y="410.00000000000006" font-family="verdana" font-style="italic" font-size="30" font-weight="normal" text-anchor="middle" stroke="#000000" fill="#000000">Access</text><text x="310" y="410.00000000000006" font-family="verdana" font-style="normal" font-size="30" font-weight="bold" text-anchor="middle" stroke="#000000" fill="#000000">Monitor</text><circle r="250" fill="#616161" stroke-width="0" cx="250" cy="250"></circle><path fill="#4285f4" d="M 250,250 L 250,0 A 250,250 0 0,1 250,0 Z"></path><circle r="212.5" fill="#ffffff" stroke-width="0" cx="250" cy="250"></circle><text x="250" y="212.5" font-family="verdana" font-style="normal" font-size="90" font-weight="bold" text-anchor="middle" stroke="#000000" fill="#000000">0%</text><text x="250" y="300" font-family="verdana" font-style="normal" font-size="70" font-weight="normal" text-anchor="middle" stroke="#616161" fill="#616161">Não conforme</text><text x="250" y="362.5" font-family="verdana" font-style="normal" font-size="30" font-weight="normal" text-anchor="middle" stroke="#000000" fill="#000000">índice: 7.0</text><text x="190" y="410.00000000000006" font-family="verdana" font-style="italic" font-size="30" font-weight="normal" text-anchor="middle" stroke="#000000" fill="#000000">Access</text><text x="310" y="410.00000000000006" font-family="verdana" font-style="normal" font-size="30" font-weight="bold" text-anchor="middle" stroke="#000000" fill="#000000">Monitor</text><circle r="250" fill="#616161" stroke-width="0" cx="250" cy="250"></circle><path fill="#4285f4" d="M 250,250 L 250,0 A 250,250 0 0,1 250,0 Z"></path><circle r="212.5" fill="#ffffff" stroke-width="0" cx="250" cy="250"></circle><text x="250" y="212.5" font-family="verdana" font-style="normal" font-size="90" font-weight="bold" text-anchor="middle" stroke="#000000" fill="#000000">0%</text><text x="250" y="300" font-family="verdana" font-style="normal" font-size="70" font-weight="normal" text-anchor="middle" stroke="#616161" fill="#616161">Não conforme</text><text x="250" y="362.5" font-family="verdana" font-style="normal" font-size="30" font-weight="normal" text-anchor="middle" stroke="#000000" fill="#000000">índice: 6.1</text><text x="190" y="410.00000000000006" font-family="verdana" font-style="italic" font-size="30" font-weight="normal" text-anchor="middle" stroke="#000000" fill="#000000">Access</text><text x="310" y="410.00000000000006" font-family="verdana" font-style="normal" font-size="30" font-weight="bold" text-anchor="middle" stroke="#000000" fill="#000000">Monitor</text><circle r="250" fill="#616161" stroke-width="0" cx="250" cy="250"></circle><path fill="#4285f4" d="M 250,250 L 250,0 A 250,250 0 0,1 250,500 Z"></path><path fill="#4285f4" d="M 250,250 L 250,500 A 250,250 0 0,1 12.235870926211618,327.25424859373686 Z"></path><circle r="212.5" fill="#ffffff" stroke-width="0" cx="250" cy="250"></circle><text x="250" y="212.5" font-family="verdana" font-style="normal" font-size="90" font-weight="bold" text-anchor="middle" stroke="#000000" fill="#000000">70%</text><text x="250" y="300" font-family="verdana" font-style="normal" font-size="70" font-weight="normal" text-anchor="middle" stroke="#616161" fill="#616161">AAA</text><text x="250" y="362.5" font-family="verdana" font-style="normal" font-size="30" font-weight="normal" text-anchor="middle" stroke="#000000" fill="#000000">índice: 9.3</text><text x="190" y="410.00000000000006" font-family="verdana" font-style="italic" font-size="30" font-weight="normal" text-anchor="middle" stroke="#000000" fill="#000000">Access</text><text x="310" y="410.00000000000006" font-family="verdana" font-style="normal" font-size="30" font-weight="bold" text-anchor="middle" stroke="#000000" fill="#000000">Monitor</text><circle r="250" fill="#616161" stroke-width="0" cx="250" cy="250"></circle><path fill="#4285f4" d="M 250,250 L 250,0 A 250,250 0 0,1 250,0 Z"></path><circle r="212.5" fill="#ffffff" stroke-width="0" cx="250" cy="250"></circle><text x="250" y="212.5" font-family="verdana" font-style="normal" font-size="90" font-weight="bold" text-anchor="middle" stroke="#000000" fill="#000000">0%</text><text x="250" y="300" font-family="verdana" font-style="normal" font-size="70" font-weight="normal" text-anchor="middle" stroke="#616161" fill="#616161">Não conforme</text><text x="250" y="362.5" font-family="verdana" font-style="normal" font-size="30" font-weight="normal" text-anchor="middle" stroke="#000000" fill="#000000">índice: 4.8</text><text x="190" y="410.00000000000006" font-family="verdana" font-style="italic" font-size="30" font-weight="normal" text-anchor="middle" stroke="#000000" fill="#000000">Access</text><text x="310" y="410.00000000000006" font-family="verdana" font-style="normal" font-size="30" font-weight="bold" text-anchor="middle" stroke="#000000" fill="#000000">Monitor</text><circle r="250" fill="#616161" stroke-width="0" cx="250" cy="250"></circle><path fill="#4285f4" d="M 250,250 L 250,0 A 250,250 0 0,1 250,0 Z"></path><circle r="212.5" fill="#ffffff" stroke-width="0" cx="250" cy="250"></circle><text x="250" y="212.5" font-family="verdana" font-style="normal" font-size="90" font-weight="bold" text-anchor="middle" stroke="#000000" fill="#000000">0%</text><text x="250" y="300" font-family="verdana" font-style="normal" font-size="70" font-weight="normal" text-anchor="middle" stroke="#616161" fill="#616161">Não conforme</text><text x="250" y="362.5" font-family="verdana" font-style="normal" font-size="30" font-weight="normal" text-anchor="middle" stroke="#000000" fill="#000000">índice: 4.9</text><text x="190" y="410.00000000000006" font-family="verdana" font-style="italic" font-size="30" font-weight="normal" text-anchor="middle" stroke="#000000" fill="#000000">Access</text><text x="310" y="410.00000000000006" font-family="verdana" font-style="normal" font-size="30" font-weight="bold" text-anchor="middle" stroke="#000000" fill="#000000">Monitor</text><circle r="250" fill="#616161" stroke-width="0" cx="250" cy="250"></circle><path fill="#4285f4" d="M 250,250 L 250,0 A 250,250 0 0,1 250,0 Z"></path><circle r="212.5" fill="#ffffff" stroke-width="0" cx="250" cy="250"></circle><text x="250" y="212.5" font-family="verdana" font-style="normal" font-size="90" font-weight="bold" text-anchor="middle" stroke="#000000" fill="#000000">0%</text><text x="250" y="300" font-family="verdana" font-style="normal" font-size="70" font-weight="normal" text-anchor="middle" stroke="#616161" fill="#616161">Não conforme</text><text x="250" y="362.5" font-family="verdana" font-style="normal" font-size="30" font-weight="normal" text-anchor="middle" stroke="#000000" fill="#000000">índice: 5.6</text><text x="190" y="410.00000000000006" font-family="verdana" font-style="italic" font-size="30" font-weight="normal" text-anchor="middle" stroke="#000000" fill="#000000">Access</text><text x="310" y="410.00000000000006" font-family="verdana" font-style="normal" font-size="30" font-weight="bold" text-anchor="middle" stroke="#000000" fill="#000000">Monitor</text><circle r="250" fill="#616161" stroke-width="0" cx="250" cy="250"></circle><path fill="#4285f4" d="M 250,250 L 250,0 A 250,250 0 0,1 250,0 Z"></path><circle r="212.5" fill="#ffffff" stroke-width="0" cx="250" cy="250"></circle><text x="250" y="212.5" font-family="verdana" font-style="normal" font-size="90" font-weight="bold" text-anchor="middle" stroke="#000000" fill="#000000">0%</text><text x="250" y="300" font-family="verdana" font-style="normal" font-size="70" font-weight="normal" text-anchor="middle" stroke="#616161" fill="#616161">Não conforme</text><text x="250" y="362.5" font-family="verdana" font-style="normal" font-size="30" font-weight="normal" text-anchor="middle" stroke="#000000" fill="#000000">índice: 5.9</text><text x="190" y="410.00000000000006" font-family="verdana" font-style="italic" font-size="30" font-weight="normal" text-anchor="middle" stroke="#000000" fill="#000000">Access</text><text x="310" y="410.00000000000006" font-family="verdana" font-style="normal" font-size="30" font-weight="bold" text-anchor="middle" stroke="#000000" fill="#000000">Monitor</text><circle r="250" fill="#616161" stroke-width="0" cx="250" cy="250"></circle><path fill="#4285f4" d="M 250,250 L 250,0 A 250,250 0 0,1 250,0 Z"></path><circle r="212.5" fill="#ffffff" stroke-width="0" cx="250" cy="250"></circle><text x="250" y="212.5" font-family="verdana" font-style="normal" font-size="90" font-weight="bold" text-anchor="middle" stroke="#000000" fill="#000000">0%</text><text x="250" y="300" font-family="verdana" font-style="normal" font-size="70" font-weight="normal" text-anchor="middle" stroke="#616161" fill="#616161">Não conforme</text><text x="250" y="362.5" font-family="verdana" font-style="normal" font-size="30" font-weight="normal" text-anchor="middle" stroke="#000000" fill="#000000">índice: 5.8</text><text x="190" y="410.00000000000006" font-family="verdana" font-style="italic" font-size="30" font-weight="normal" text-anchor="middle" stroke="#000000" fill="#000000">Access</text><text x="310" y="410.00000000000006" font-family="verdana" font-style="normal" font-size="30" font-weight="bold" text-anchor="middle" stroke="#000000" fill="#000000">Monitor</text></svg>